<?xml version="1.0" encoding="UTF-8" standalone="no"?>
<svg
   xmlns:dc="http://purl.org/dc/elements/1.1/"
   xmlns:cc="http://creativecommons.org/ns#"
   xmlns:rdf="http://www.w3.org/1999/02/22-rdf-syntax-ns#"
   xmlns:svg="http://www.w3.org/2000/svg"
   xmlns="http://www.w3.org/2000/svg"
   xmlns:sodipodi="http://sodipodi.sourceforge.net/DTD/sodipodi-0.dtd"
   xmlns:inkscape="http://www.inkscape.org/namespaces/inkscape"
   width="480"
   height="280"
   viewBox="0 0 127 74.083335"
   version="1.1"
   id="svg8"
   inkscape:version="1.0.1 (3bc2e81, 2020-09-07)"
   sodipodi:docname="boot.svg"
   inkscape:export-filename="/home/james/Code/inkySystems/resources/boot.png"
   inkscape:export-xdpi="96"
   inkscape:export-ydpi="96">
  <defs
     id="defs2" />
  <sodipodi:namedview
     id="base"
     pagecolor="#ffffff"
     bordercolor="#666666"
     borderopacity="1.0"
     inkscape:pageopacity="0.0"
     inkscape:pageshadow="2"
     inkscape:zoom="0.7"
     inkscape:cx="88.304122"
     inkscape:cy="-37.103948"
     inkscape:document-units="mm"
     inkscape:current-layer="text849"
     inkscape:document-rotation="0"
     showgrid="false"
     units="px"
     inkscape:window-width="1920"
     inkscape:window-height="1020"
     inkscape:window-x="0"
     inkscape:window-y="32"
     inkscape:window-maximized="1"
     inkscape:snap-bbox="false"
     inkscape:snap-page="true"
     inkscape:snap-global="true" />
  <metadata
     id="metadata5">
    <rdf:RDF>
      <cc:Work
         rdf:about="">
        <dc:format>image/svg+xml</dc:format>
        <dc:type
           rdf:resource="http://purl.org/dc/dcmitype/StillImage" />
        <dc:title></dc:title>
      </cc:Work>
    </rdf:RDF>
  </metadata>
  <g
     inkscape:label="Layer 1"
     inkscape:groupmode="layer"
     id="layer1">
    <g
       aria-label="inkyOS"
       id="text849"
       style="font-style:normal;font-weight:normal;font-size:21.6496px;line-height:1.25;font-family:sans-serif;letter-spacing:0px;word-spacing:0px;fill:#000000;fill-opacity:1;stroke:none;stroke-width:0.54124">
      <rect
         style="fill:#ffffff;fill-opacity:1;stroke:none;stroke-width:0.755811;stroke-miterlimit:4;stroke-dasharray:none;stroke-opacity:1"
         id="rect908"
         width="127"
         height="74.083336"
         x="-6.6613381e-16"
         y="-2.220446e-15" />
      <path
         d="m 30.512408,43.065498 q -0.216496,0 -0.368043,-0.151547 -0.151548,-0.151547 -0.151548,-0.368043 V 32.327297 q 0,-0.216496 0.151548,-0.368043 0.151547,-0.151547 0.368043,-0.151547 h 1.796917 q 0.238145,0 0.368043,0.151547 0.151547,0.151547 0.151547,0.368043 v 10.218611 q 0,0.216496 -0.151547,0.368043 -0.129898,0.151547 -0.368043,0.151547 z m -0.0866,-13.119657 q -0.238145,0 -0.389692,-0.129897 -0.129898,-0.151547 -0.129898,-0.389693 V 27.86748 q 0,-0.216496 0.129898,-0.368043 0.151547,-0.151548 0.389692,-0.151548 h 1.970114 q 0.238145,0 0.389693,0.151548 0.151547,0.151547 0.151547,0.368043 v 1.558771 q 0,0.238146 -0.151547,0.389693 -0.151548,0.129897 -0.389693,0.129897 z"
         style="font-style:normal;font-variant:normal;font-weight:500;font-stretch:normal;font-family:Rubik;-inkscape-font-specification:'Rubik Medium';stroke-width:0.26458333;fill:#ffffff;fill-opacity:1;stroke:#000000;stroke-opacity:1;stroke-miterlimit:4;stroke-dasharray:none"
         id="path851" />
      <path
         d="m 36.227901,43.065498 q -0.216496,0 -0.368044,-0.151547 Q 35.70831,42.762404 35.70831,42.545908 V 32.327297 q 0,-0.216496 0.151547,-0.368043 0.151548,-0.151547 0.368044,-0.151547 h 1.775267 q 0.216496,0 0.368043,0.151547 0.151547,0.151547 0.151547,0.368043 v 0.887634 q 0.56289,-0.692787 1.428874,-1.147429 0.887633,-0.476291 2.186609,-0.476291 1.320626,0 2.294858,0.606189 0.974232,0.584539 1.493822,1.667019 0.54124,1.08248 0.54124,2.597952 v 6.083537 q 0,0.216496 -0.151547,0.368043 -0.151548,0.151547 -0.368044,0.151547 h -1.905164 q -0.216496,0 -0.368043,-0.151547 -0.151548,-0.151547 -0.151548,-0.368043 v -5.95364 q 0,-1.255677 -0.627838,-1.970113 -0.606189,-0.714437 -1.775267,-0.714437 -1.125779,0 -1.796917,0.714437 -0.671137,0.714436 -0.671137,1.970113 v 5.95364 q 0,0.216496 -0.151548,0.368043 -0.151547,0.151547 -0.368043,0.151547 z"
         style="font-style:normal;font-variant:normal;font-weight:500;font-stretch:normal;font-family:Rubik;-inkscape-font-specification:'Rubik Medium';stroke-width:0.26458333;fill:#ffffff;fill-opacity:1;stroke:#000000;stroke-opacity:1;stroke-miterlimit:4;stroke-dasharray:none"
         id="path853" />
      <path
         d="m 49.758871,43.065498 q -0.216496,0 -0.368043,-0.151547 Q 49.23928,42.762404 49.23928,42.545908 V 28.213873 q 0,-0.216496 0.151548,-0.368043 0.151547,-0.151547 0.368043,-0.151547 h 1.753617 q 0.238146,0 0.368044,0.151547 0.151547,0.151547 0.151547,0.368043 v 7.404163 l 3.637132,-3.442286 q 0.194847,-0.173197 0.346394,-0.259795 0.151547,-0.108248 0.454642,-0.108248 h 2.013412 q 0.216496,0 0.346394,0.129897 0.129897,0.129898 0.129897,0.346394 0,0.0866 -0.0433,0.194846 -0.0433,0.108248 -0.173197,0.194847 l -4.459817,4.178372 5.001057,5.369101 q 0.216496,0.216496 0.216496,0.368043 0,0.216496 -0.151547,0.346394 -0.129897,0.129897 -0.324744,0.129897 h -2.056712 q -0.324744,0 -0.476291,-0.0866 -0.129897,-0.108248 -0.324744,-0.281445 l -4.135073,-4.351569 v 4.200022 q 0,0.216496 -0.151547,0.368043 -0.129898,0.151547 -0.368044,0.151547 z"
         style="font-style:normal;font-variant:normal;font-weight:500;font-stretch:normal;font-family:Rubik;-inkscape-font-specification:'Rubik Medium';stroke-width:0.26458333;fill:#ffffff;fill-opacity:1;stroke:#000000;stroke-opacity:1;stroke-miterlimit:4;stroke-dasharray:none"
         id="path855" />
      <path
         d="m 63.159956,47.178922 q -0.173197,0 -0.303094,-0.129897 -0.129898,-0.129898 -0.129898,-0.303095 0,-0.0866 0,-0.173197 0.02165,-0.06495 0.0866,-0.173196 l 1.688669,-4.005176 -4.156723,-9.807269 q -0.0866,-0.216496 -0.0866,-0.303094 0.02165,-0.194846 0.151547,-0.324744 0.129897,-0.151547 0.324744,-0.151547 h 1.753617 q 0.259796,0 0.389693,0.129897 0.129898,0.129898 0.194847,0.281445 l 2.879396,7.079419 2.965995,-7.079419 q 0.06495,-0.173197 0.194847,-0.281445 0.129897,-0.129897 0.389693,-0.129897 h 1.731967 q 0.173197,0 0.303095,0.129897 0.151547,0.129898 0.151547,0.303095 0,0.129897 -0.0866,0.346393 L 65.476463,46.76758 q -0.0866,0.173197 -0.216496,0.281445 -0.129898,0.129897 -0.389693,0.129897 z"
         style="font-style:normal;font-variant:normal;font-weight:500;font-stretch:normal;font-family:Rubik;-inkscape-font-specification:'Rubik Medium';stroke-width:0.26458333;fill:#ffffff;fill-opacity:1;stroke:#000000;stroke-opacity:1;stroke-miterlimit:4;stroke-dasharray:none"
         id="path857" />
      <path
         d="m 79.635288,43.281994 q -1.926814,0 -3.312389,-0.627838 -1.385574,-0.649488 -2.16496,-1.970114 -0.779385,-1.342275 -0.844334,-3.334038 -0.02165,-0.930933 -0.02165,-1.840216 0,-0.909283 0.02165,-1.861865 0.06495,-1.970114 0.865984,-3.290739 0.801035,-1.320626 2.18661,-1.991763 1.407223,-0.671138 3.269089,-0.671138 1.861866,0 3.269089,0.671138 1.407224,0.671137 2.20826,1.991763 0.801035,1.320625 0.865984,3.290739 0.0433,0.952582 0.0433,1.861865 0,0.909283 -0.0433,1.840216 -0.06495,1.991763 -0.844335,3.334038 -0.779385,1.320626 -2.186609,1.970114 -1.385575,0.627838 -3.312389,0.627838 z m 0,-2.489704 q 1.407224,0 2.294858,-0.822684 0.887633,-0.844335 0.952582,-2.72785 0.0433,-0.952582 0.0433,-1.753617 0,-0.822685 -0.0433,-1.753618 -0.0433,-1.255677 -0.476291,-2.035062 -0.411343,-0.801035 -1.125779,-1.147429 -0.714437,-0.368043 -1.64537,-0.368043 -0.909283,0 -1.62372,0.368043 -0.714437,0.346394 -1.147429,1.147429 -0.411342,0.779385 -0.454641,2.035062 -0.02165,0.930933 -0.02165,1.753618 0,0.801035 0.02165,1.753617 0.06495,1.883515 0.952582,2.72785 0.887634,0.822684 2.273208,0.822684 z"
         style="font-style:normal;font-variant:normal;font-weight:500;font-stretch:normal;font-family:Rubik;-inkscape-font-specification:'Rubik Medium';stroke-width:0.54124"
         id="path859" />
      <path
         d="m 94.118861,43.281994 q -2.013412,0 -3.377337,-0.584539 -1.342275,-0.606189 -2.056712,-1.558771 -0.692787,-0.974232 -0.736086,-2.035062 0,-0.194847 0.129897,-0.324744 0.129898,-0.129898 0.324744,-0.129898 h 1.926815 q 0.281444,0 0.411342,0.129898 0.151547,0.108248 0.259795,0.281445 0.129898,0.411342 0.497941,0.822684 0.368043,0.389693 0.995882,0.649488 0.649487,0.259795 1.623719,0.259795 1.558772,0 2.316508,-0.51959 0.779385,-0.51959 0.779385,-1.407224 0,-0.627838 -0.411342,-0.995881 -0.411343,-0.389693 -1.277327,-0.692788 -0.844334,-0.324744 -2.251558,-0.671137 -1.62372,-0.389693 -2.727849,-0.930933 -1.08248,-0.56289 -1.64537,-1.407224 -0.54124,-0.844334 -0.54124,-2.14331 0,-1.255677 0.671138,-2.229909 0.692787,-0.974232 1.948464,-1.537121 1.277326,-0.56289 3.030943,-0.56289 1.407224,0 2.489704,0.389693 1.08248,0.368043 1.796917,0.995881 0.714437,0.606189 1.08248,1.320626 0.389693,0.692787 0.411342,1.363925 0,0.173196 -0.129897,0.324744 -0.108248,0.129897 -0.324744,0.129897 h -2.013413 q -0.173197,0 -0.346393,-0.0866 -0.173197,-0.0866 -0.281445,-0.324744 -0.129898,-0.671138 -0.844335,-1.147429 -0.714436,-0.476291 -1.840216,-0.476291 -1.169078,0 -1.883515,0.432992 -0.714436,0.432992 -0.714436,1.342275 0,0.606189 0.346393,1.017531 0.368043,0.389693 1.147429,0.692787 0.801035,0.303095 2.100011,0.649488 1.840216,0.411343 3.009294,0.952583 1.169079,0.54124 1.710319,1.385574 0.541242,0.822685 0.541242,2.100011 0,1.428874 -0.779388,2.446405 -0.757736,0.995881 -2.14331,1.537121 -1.385575,0.54124 -3.225791,0.54124 z"
         style="font-style:normal;font-variant:normal;font-weight:500;font-stretch:normal;font-family:Rubik;-inkscape-font-specification:'Rubik Medium';stroke-width:0.54124"
         id="path861" />
    </g>
  </g>
</svg>
