<?xml version="1.0" encoding="UTF-8" standalone="no"?>
<svg
   xmlns:dc="http://purl.org/dc/elements/1.1/"
   xmlns:cc="http://creativecommons.org/ns#"
   xmlns:rdf="http://www.w3.org/1999/02/22-rdf-syntax-ns#"
   xmlns:svg="http://www.w3.org/2000/svg"
   xmlns="http://www.w3.org/2000/svg"
   xmlns:sodipodi="http://sodipodi.sourceforge.net/DTD/sodipodi-0.dtd"
   xmlns:inkscape="http://www.inkscape.org/namespaces/inkscape"
   width="512"
   height="96"
   viewBox="0 0 135.46666 25.400001"
   version="1.1"
   id="svg916"
   inkscape:version="1.0.1 (3bc2e81, 2020-09-07)"
   sodipodi:docname="inkySystems.svg"
   inkscape:export-filename="/home/james/Code/inkySystems/resources/inkySystems.png"
   inkscape:export-xdpi="96"
   inkscape:export-ydpi="96">
  <defs
     id="defs910">
    <rect
       x="3.672399"
       y="3.3584421"
       width="115.67105"
       height="28.964949"
       id="rect1481" />
  </defs>
  <sodipodi:namedview
     id="base"
     pagecolor="#ffffff"
     bordercolor="#666666"
     borderopacity="1.0"
     inkscape:pageopacity="0.0"
     inkscape:pageshadow="2"
     inkscape:zoom="1.979899"
     inkscape:cx="253.5192"
     inkscape:cy="85.966664"
     inkscape:document-units="mm"
     inkscape:current-layer="text1479"
     inkscape:document-rotation="0"
     showgrid="false"
     units="px"
     inkscape:snap-object-midpoints="true"
     inkscape:snap-bbox="true"
     inkscape:snap-bbox-midpoints="true"
     inkscape:window-width="1920"
     inkscape:window-height="1020"
     inkscape:window-x="0"
     inkscape:window-y="32"
     inkscape:window-maximized="1" />
  <metadata
     id="metadata913">
    <rdf:RDF>
      <cc:Work
         rdf:about="">
        <dc:format>image/svg+xml</dc:format>
        <dc:type
           rdf:resource="http://purl.org/dc/dcmitype/StillImage" />
        <dc:title></dc:title>
      </cc:Work>
    </rdf:RDF>
  </metadata>
  <g
     inkscape:label="Layer 1"
     inkscape:groupmode="layer"
     id="layer1">
    <g
       aria-label="inkySystems"
       transform="matrix(2.0361144,0,0,2.0361144,-6.599445,-8.0612388)"
       id="text1479"
       style="font-style:normal;font-weight:normal;font-size:10.5833px;line-height:1.25;font-family:sans-serif;letter-spacing:0px;word-spacing:0px;white-space:pre;shape-inside:url(#rect1481);fill:#000000;fill-opacity:1;stroke:none">
      <path
         d="m 4.624372,13.032823 q -0.105833,0 -0.1799161,-0.07408 -0.074083,-0.07408 -0.074083,-0.179916 V 7.7835068 q 0,-0.105833 0.074083,-0.1799161 0.074083,-0.074083 0.1799161,-0.074083 h 0.8784138 q 0.1164163,0 0.1799161,0.074083 0.074083,0.074083 0.074083,0.1799161 v 4.9953172 q 0,0.105833 -0.074083,0.179916 -0.0635,0.07408 -0.1799161,0.07408 z M 4.5820388,6.6193439 q -0.1164163,0 -0.1904994,-0.0635 -0.0635,-0.074083 -0.0635,-0.1904994 V 5.6033471 q 0,-0.105833 0.0635,-0.1799161 0.074083,-0.074083 0.1904994,-0.074083 H 5.545119 q 0.1164163,0 0.1904994,0.074083 0.074083,0.074083 0.074083,0.1799161 v 0.7619976 q 0,0.1164163 -0.074083,0.1904994 -0.074083,0.0635 -0.1904994,0.0635 z"
         style="font-style:normal;font-variant:normal;font-weight:500;font-stretch:normal;font-family:Rubik;-inkscape-font-specification:'Rubik Medium';fill:#ffffff;fill-opacity:1;stroke:#000000;stroke-opacity:1;stroke-width:0.12994522;stroke-miterlimit:4;stroke-dasharray:none"
         id="path1485" />
      <path
         d="m 7.4183623,13.032823 q -0.105833,0 -0.1799161,-0.07408 -0.074083,-0.07408 -0.074083,-0.179916 V 7.7835068 q 0,-0.105833 0.074083,-0.1799161 0.074083,-0.074083 0.1799161,-0.074083 h 0.8678306 q 0.105833,0 0.1799161,0.074083 0.074083,0.074083 0.074083,0.1799161 V 8.2174221 Q 8.8153579,7.8787565 9.2386899,7.6565072 9.6726052,7.4236746 10.307603,7.4236746 q 0.645581,0 1.12183,0.2963324 0.476248,0.2857491 0.730248,0.8149141 0.264582,0.529165 0.264582,1.269996 v 2.9739069 q 0,0.105833 -0.07408,0.179916 -0.07408,0.07408 -0.179916,0.07408 h -0.93133 q -0.105833,0 -0.179917,-0.07408 -0.07408,-0.07408 -0.07408,-0.179916 V 9.8684169 q 0,-0.6138314 -0.306915,-0.9630803 -0.296333,-0.3492489 -0.8678309,-0.3492489 -0.5503316,0 -0.8784139,0.3492489 -0.3280823,0.3492489 -0.3280823,0.9630803 v 2.9104071 q 0,0.105833 -0.074083,0.179916 -0.074083,0.07408 -0.1799161,0.07408 z"
         style="font-style:normal;font-variant:normal;font-weight:500;font-stretch:normal;font-family:Rubik;-inkscape-font-specification:'Rubik Medium';fill:#ffffff;fill-opacity:1;stroke:#000000;stroke-opacity:1;stroke-width:0.12994522;stroke-miterlimit:4;stroke-dasharray:none"
         id="path1487" />
      <path
         d="m 14.03291,13.032823 q -0.105833,0 -0.179916,-0.07408 -0.07408,-0.07408 -0.07408,-0.179916 V 5.7726799 q 0,-0.105833 0.07408,-0.1799161 0.07408,-0.074083 0.179916,-0.074083 h 0.857247 q 0.116417,0 0.179917,0.074083 0.07408,0.074083 0.07408,0.1799161 v 3.6194885 l 1.777994,-1.6827447 q 0.09525,-0.084666 0.169333,-0.1269996 0.07408,-0.052917 0.222249,-0.052917 h 0.984247 q 0.105833,0 0.169333,0.0635 0.0635,0.0635 0.0635,0.1693328 0,0.042333 -0.02117,0.09525 -0.02117,0.052917 -0.08467,0.09525 l -2.18016,2.0425769 2.444742,2.6246585 q 0.105833,0.105833 0.105833,0.179916 0,0.105833 -0.07408,0.169333 -0.0635,0.0635 -0.15875,0.0635 h -1.005413 q -0.15875,0 -0.232833,-0.04233 -0.0635,-0.05292 -0.158749,-0.137583 l -2.02141,-2.127243 v 2.05316 q 0,0.105833 -0.07408,0.179916 -0.0635,0.07408 -0.179917,0.07408 z"
         style="font-style:normal;font-variant:normal;font-weight:500;font-stretch:normal;font-family:Rubik;-inkscape-font-specification:'Rubik Medium';fill:#ffffff;fill-opacity:1;stroke:#000000;stroke-opacity:1;stroke-width:0.12994522;stroke-miterlimit:4;stroke-dasharray:none"
         id="path1489" />
      <path
         d="m 20.583964,15.04365 q -0.08467,0 -0.148166,-0.0635 -0.0635,-0.0635 -0.0635,-0.148167 0,-0.04233 0,-0.08467 0.01058,-0.03175 0.04233,-0.08467 l 0.825497,-1.957911 -2.031994,-4.7942346 q -0.04233,-0.105833 -0.04233,-0.1481662 0.01058,-0.09525 0.07408,-0.1587495 0.0635,-0.074083 0.15875,-0.074083 h 0.857247 q 0.127,0 0.190499,0.0635 0.0635,0.0635 0.09525,0.1375829 l 1.407579,3.4607387 1.449912,-3.4607387 q 0.03175,-0.084666 0.09525,-0.1375829 0.0635,-0.0635 0.190499,-0.0635 h 0.846664 q 0.08467,0 0.148166,0.0635 0.07408,0.0635 0.07408,0.1481662 0,0.0635 -0.04233,0.1693328 l -2.995074,6.9320616 q -0.04233,0.08467 -0.105833,0.137583 -0.0635,0.0635 -0.190499,0.0635 z"
         style="font-style:normal;font-variant:normal;font-weight:500;font-stretch:normal;font-family:Rubik;-inkscape-font-specification:'Rubik Medium';fill:#ffffff;fill-opacity:1;stroke:#000000;stroke-opacity:1;stroke-width:0.12994522;stroke-miterlimit:4;stroke-dasharray:none"
         id="path1491" />
      <path
         d="m 28.362684,13.138656 q -0.984247,0 -1.650995,-0.285749 -0.656165,-0.296332 -1.005413,-0.761997 -0.338666,-0.476249 -0.359833,-0.99483 0,-0.09525 0.0635,-0.15875 0.0635,-0.0635 0.15875,-0.0635 h 0.941913 q 0.137583,0 0.201083,0.0635 0.07408,0.05292 0.127,0.137583 0.0635,0.201083 0.243415,0.402165 0.179917,0.1905 0.486832,0.317499 0.317499,0.127 0.793748,0.127 0.761997,0 1.132413,-0.253999 0.380999,-0.253999 0.380999,-0.687915 0,-0.306915 -0.201083,-0.486831 -0.201083,-0.1905 -0.624415,-0.338666 Q 28.63785,9.9954165 27.949935,9.8260837 27.156188,9.6355843 26.616439,9.3710018 26.087274,9.095836 25.812109,8.6830873 25.547526,8.2703386 25.547526,7.6353406 q 0,-0.6138313 0.328082,-1.0900798 0.338666,-0.4762485 0.952497,-0.7514143 0.624415,-0.2751658 1.481662,-0.2751658 0.687915,0 1.21708,0.1904994 0.529165,0.1799161 0.878414,0.4868318 0.349248,0.2963324 0.529165,0.6455813 0.190499,0.3386656 0.201082,0.6667478 0,0.084666 -0.0635,0.1587495 -0.05292,0.0635 -0.158749,0.0635 h -0.984247 q -0.08467,0 -0.169333,-0.042333 -0.08467,-0.042333 -0.137583,-0.1587495 -0.0635,-0.3280822 -0.412748,-0.5609148 -0.349249,-0.2328326 -0.899581,-0.2328326 -0.571498,0 -0.920747,0.211666 -0.349249,0.211666 -0.349249,0.6561645 0,0.2963324 0.169333,0.4974151 0.179916,0.1904994 0.560915,0.3386656 0.391582,0.1481662 1.02658,0.317499 0.899581,0.2010827 1.471079,0.4656652 0.571498,0.2645825 0.83608,0.6773312 0.264583,0.4021652 0.264583,1.0265802 0,0.698498 -0.380999,1.195913 -0.370415,0.486831 -1.047747,0.751414 -0.677331,0.264582 -1.576911,0.264582 z"
         style="font-style:normal;font-variant:normal;font-weight:500;font-stretch:normal;font-family:Rubik;-inkscape-font-specification:'Rubik Medium'"
         id="path1493" />
      <path
         d="m 33.431735,15.04365 q -0.08467,0 -0.148166,-0.0635 -0.0635,-0.0635 -0.0635,-0.148167 0,-0.04233 0,-0.08467 0.01058,-0.03175 0.04233,-0.08467 L 34.0879,12.704741 32.055906,7.9105064 q -0.04233,-0.105833 -0.04233,-0.1481662 0.01058,-0.09525 0.07408,-0.1587495 0.0635,-0.074083 0.15875,-0.074083 h 0.857247 q 0.126999,0 0.190499,0.0635 0.0635,0.0635 0.09525,0.1375829 l 1.407579,3.4607387 1.449912,-3.4607387 q 0.03175,-0.084666 0.09525,-0.1375829 0.0635,-0.0635 0.1905,-0.0635 h 0.846664 q 0.08467,0 0.148166,0.0635 0.07408,0.0635 0.07408,0.1481662 0,0.0635 -0.04233,0.1693328 l -2.995074,6.9320616 q -0.04233,0.08467 -0.105833,0.137583 -0.0635,0.0635 -0.190499,0.0635 z"
         style="font-style:normal;font-variant:normal;font-weight:500;font-stretch:normal;font-family:Rubik;-inkscape-font-specification:'Rubik Medium'"
         id="path1495" />
      <path
         d="m 40.42496,13.138656 q -0.634998,0 -1.09008,-0.148166 -0.444499,-0.148166 -0.730248,-0.370415 -0.285749,-0.22225 -0.423332,-0.444499 -0.137583,-0.222249 -0.148166,-0.370415 -0.01058,-0.116417 0.0635,-0.179916 0.08467,-0.07408 0.179916,-0.07408 h 0.836081 q 0.04233,0 0.07408,0.01058 0.03175,0.01058 0.08467,0.0635 0.137583,0.116416 0.285749,0.243415 0.15875,0.127 0.370416,0.22225 0.211666,0.08467 0.529165,0.08467 0.412748,0 0.687914,-0.158749 0.285749,-0.169333 0.285749,-0.476249 0,-0.222249 -0.126999,-0.359832 -0.116417,-0.137583 -0.444499,-0.243416 -0.328082,-0.116416 -0.93133,-0.243416 -0.592665,-0.137583 -0.984247,-0.349249 -0.391582,-0.211666 -0.582082,-0.5291646 -0.190499,-0.317499 -0.190499,-0.740831 0,-0.4127487 0.243416,-0.7831642 0.253999,-0.3809988 0.740831,-0.6244147 0.497415,-0.2434159 1.227663,-0.2434159 0.571498,0 0.99483,0.1481662 0.423332,0.1375829 0.698498,0.3492489 0.285749,0.211666 0.433915,0.4339153 0.148166,0.211666 0.158749,0.3704155 0.01058,0.1164163 -0.0635,0.1904994 -0.07408,0.0635 -0.169333,0.0635 h -0.783164 q -0.05292,0 -0.09525,-0.021167 -0.04233,-0.021167 -0.08467,-0.052917 Q 41.35629,8.7995036 41.218707,8.6830873 41.081124,8.566671 40.880042,8.4820046 q -0.1905,-0.09525 -0.507999,-0.09525 -0.402165,0 -0.613831,0.1799161 -0.211666,0.1693328 -0.211666,0.4339153 0,0.1799161 0.09525,0.317499 0.105833,0.1269996 0.412748,0.2434159 0.306916,0.1164163 0.931331,0.2434159 0.709081,0.1269996 1.121829,0.3809989 0.423332,0.243416 0.592665,0.571498 0.179916,0.317499 0.179916,0.709081 0,0.476249 -0.285749,0.857247 -0.275166,0.380999 -0.825497,0.603248 -0.539748,0.211666 -1.344079,0.211666 z"
         style="font-style:normal;font-variant:normal;font-weight:500;font-stretch:normal;font-family:Rubik;-inkscape-font-specification:'Rubik Medium'"
         id="path1497" />
      <path
         d="m 46.440239,13.032823 q -0.634998,0 -1.068914,-0.222249 Q 44.93741,12.588325 44.725744,12.15441 44.514078,11.709911 44.514078,11.053746 V 8.6513374 h -0.836081 q -0.105833,0 -0.179916,-0.074083 -0.07408,-0.074083 -0.07408,-0.1799161 V 7.7835068 q 0,-0.105833 0.07408,-0.1799161 0.07408,-0.074083 0.179916,-0.074083 h 0.836081 V 5.7726799 q 0,-0.105833 0.0635,-0.1799161 0.07408,-0.074083 0.190499,-0.074083 h 0.857247 q 0.105833,0 0.179917,0.074083 0.07408,0.074083 0.07408,0.1799161 v 1.7568277 h 1.322912 q 0.105833,0 0.179916,0.074083 0.07408,0.074083 0.07408,0.1799161 v 0.6138314 q 0,0.105833 -0.07408,0.1799161 -0.07408,0.074083 -0.179916,0.074083 h -1.322912 v 2.2965756 q 0,0.433916 0.148166,0.677332 0.158749,0.243415 0.539748,0.243415 h 0.730248 q 0.105833,0 0.179916,0.07408 0.07408,0.07408 0.07408,0.179916 v 0.656164 q 0,0.105833 -0.07408,0.179916 -0.07408,0.07408 -0.179916,0.07408 z"
         style="font-style:normal;font-variant:normal;font-weight:500;font-stretch:normal;font-family:Rubik;-inkscape-font-specification:'Rubik Medium'"
         id="path1499" />
      <path
         d="m 50.864044,13.138656 q -1.174746,0 -1.86266,-0.677331 -0.687915,-0.677331 -0.740831,-1.92616 -0.01058,-0.105833 -0.01058,-0.264583 0,-0.169333 0.01058,-0.264582 0.04233,-0.7937477 0.359832,-1.3758292 0.328082,-0.5820815 0.89958,-0.8889972 0.571499,-0.317499 1.344079,-0.317499 0.857248,0 1.439329,0.3598322 0.582082,0.3492489 0.878414,0.9842469 0.296332,0.6244147 0.296332,1.4499123 v 0.222249 q 0,0.105833 -0.07408,0.179916 -0.07408,0.07408 -0.190499,0.07408 h -3.513656 q 0,0 0,0.03175 0,0.03175 0,0.05292 0.01058,0.370415 0.137583,0.687914 0.137583,0.306916 0.391582,0.497415 0.264583,0.1905 0.624415,0.1905 0.296333,0 0.497415,-0.08467 0.201083,-0.09525 0.328083,-0.211666 0.126999,-0.116416 0.179916,-0.190499 0.09525,-0.127 0.148166,-0.148166 0.0635,-0.03175 0.179916,-0.03175 h 0.910164 q 0.105833,0 0.169332,0.0635 0.07408,0.0635 0.0635,0.158749 -0.01058,0.169333 -0.179916,0.412749 -0.158749,0.243416 -0.465665,0.476248 -0.306916,0.232833 -0.772581,0.391582 -0.455082,0.148166 -1.047747,0.148166 z M 49.699881,9.8049171 h 2.33891 v -0.03175 q 0,-0.4127487 -0.137583,-0.7196644 Q 51.763625,8.7465871 51.499042,8.566671 51.23446,8.3867549 50.864044,8.3867549 q -0.370415,0 -0.634998,0.1799161 -0.264582,0.1799161 -0.402165,0.4868318 -0.127,0.3069157 -0.127,0.7196644 z"
         style="font-style:normal;font-variant:normal;font-weight:500;font-stretch:normal;font-family:Rubik;-inkscape-font-specification:'Rubik Medium'"
         id="path1501" />
      <path
         d="m 54.853948,13.032823 q -0.105833,0 -0.179916,-0.07408 -0.07408,-0.07408 -0.07408,-0.179916 V 7.7835068 q 0,-0.105833 0.07408,-0.1799161 0.07408,-0.074083 0.179916,-0.074083 h 0.825497 q 0.105833,0 0.179917,0.074083 0.07408,0.074083 0.07408,0.1799161 V 8.143339 q 0.222249,-0.2963324 0.592664,-0.4974151 0.380999,-0.211666 0.899581,-0.2222493 1.206496,-0.021167 1.682745,0.9419137 0.243415,-0.423332 0.698497,-0.6773312 0.465665,-0.2645825 1.02658,-0.2645825 0.550332,0 0.994831,0.2539992 0.455081,0.2539992 0.709081,0.7725809 0.264582,0.5079984 0.264582,1.2911626 v 3.0374067 q 0,0.105833 -0.07408,0.179916 -0.07408,0.07408 -0.179916,0.07408 h -0.867831 q -0.105833,0 -0.179916,-0.07408 -0.07408,-0.07408 -0.07408,-0.179916 V 9.8260837 q 0,-0.4762485 -0.137583,-0.7514143 Q 61.151011,8.7889203 60.918179,8.672504 60.685346,8.5560877 60.399597,8.5560877 q -0.232833,0 -0.465665,0.1164163 -0.232833,0.1164163 -0.380999,0.4021654 -0.148166,0.2751658 -0.148166,0.7514143 v 2.9527403 q 0,0.105833 -0.07408,0.179916 -0.07408,0.07408 -0.179916,0.07408 h -0.867831 q -0.116416,0 -0.190499,-0.07408 -0.0635,-0.07408 -0.0635,-0.179916 V 9.8260837 q 0,-0.4762485 -0.148166,-0.7514143 Q 57.732606,8.7889203 57.499773,8.672504 57.26694,8.5560877 57.002358,8.5560877 q -0.243416,0 -0.476249,0.1269996 -0.232832,0.1164163 -0.380998,0.3915821 -0.148167,0.2751658 -0.148167,0.7514143 v 2.9527403 q 0,0.105833 -0.07408,0.179916 -0.07408,0.07408 -0.179916,0.07408 z"
         style="font-style:normal;font-variant:normal;font-weight:500;font-stretch:normal;font-family:Rubik;-inkscape-font-specification:'Rubik Medium'"
         id="path1503" />
      <path
         d="m 66.230979,13.138656 q -0.634998,0 -1.09008,-0.148166 -0.444499,-0.148166 -0.730248,-0.370415 -0.285749,-0.22225 -0.423332,-0.444499 -0.137583,-0.222249 -0.148166,-0.370415 -0.01058,-0.116417 0.0635,-0.179916 0.08467,-0.07408 0.179916,-0.07408 h 0.83608 q 0.04233,0 0.07408,0.01058 0.03175,0.01058 0.08467,0.0635 0.137583,0.116416 0.285749,0.243415 0.15875,0.127 0.370416,0.22225 0.211666,0.08467 0.529165,0.08467 0.412748,0 0.687914,-0.158749 0.285749,-0.169333 0.285749,-0.476249 0,-0.222249 -0.127,-0.359832 -0.116416,-0.137583 -0.444498,-0.243416 -0.328082,-0.116416 -0.93133,-0.243416 -0.592665,-0.137583 -0.984247,-0.349249 -0.391582,-0.211666 -0.582082,-0.5291646 -0.190499,-0.317499 -0.190499,-0.740831 0,-0.4127487 0.243416,-0.7831642 0.253999,-0.3809988 0.740831,-0.6244147 0.497415,-0.2434159 1.227662,-0.2434159 0.571499,0 0.994831,0.1481662 0.423332,0.1375829 0.698497,0.3492489 0.285749,0.211666 0.433916,0.4339153 0.148166,0.211666 0.158749,0.3704155 0.01058,0.1164163 -0.0635,0.1904994 -0.07408,0.0635 -0.169332,0.0635 h -0.783165 q -0.05292,0 -0.09525,-0.021167 -0.04233,-0.021167 -0.08467,-0.052917 Q 67.162309,8.7995036 67.024726,8.6830873 66.887143,8.566671 66.68606,8.4820046 q -0.190499,-0.09525 -0.507998,-0.09525 -0.402165,0 -0.613831,0.1799161 -0.211666,0.1693328 -0.211666,0.4339153 0,0.1799161 0.09525,0.317499 0.105833,0.1269996 0.412749,0.2434159 0.306916,0.1164163 0.93133,0.2434159 0.709082,0.1269996 1.12183,0.3809989 0.423332,0.243416 0.592665,0.571498 0.179916,0.317499 0.179916,0.709081 0,0.476249 -0.285749,0.857247 -0.275166,0.380999 -0.825497,0.603248 -0.539749,0.211666 -1.344079,0.211666 z"
         style="font-style:normal;font-variant:normal;font-weight:500;font-stretch:normal;font-family:Rubik;-inkscape-font-specification:'Rubik Medium'"
         id="path1505" />
    </g>
  </g>
</svg>
