<?xml version="1.0" encoding="UTF-8" standalone="no"?>
<svg
   xmlns:dc="http://purl.org/dc/elements/1.1/"
   xmlns:cc="http://creativecommons.org/ns#"
   xmlns:rdf="http://www.w3.org/1999/02/22-rdf-syntax-ns#"
   xmlns:svg="http://www.w3.org/2000/svg"
   xmlns="http://www.w3.org/2000/svg"
   xmlns:sodipodi="http://sodipodi.sourceforge.net/DTD/sodipodi-0.dtd"
   xmlns:inkscape="http://www.inkscape.org/namespaces/inkscape"
   width="512"
   height="192"
   viewBox="0 0 135.46666 50.8"
   version="1.1"
   id="svg1532"
   inkscape:version="1.0.1 (3bc2e81, 2020-09-07)"
   sodipodi:docname="inkyOS.svg"
   inkscape:export-filename="/home/james/Code/inkySystems/resources/inkyOS.png"
   inkscape:export-xdpi="96"
   inkscape:export-ydpi="96">
  <defs
     id="defs1526" />
  <sodipodi:namedview
     id="base"
     pagecolor="#ffffff"
     bordercolor="#666666"
     borderopacity="1.0"
     inkscape:pageopacity="0.0"
     inkscape:pageshadow="2"
     inkscape:zoom="1.4"
     inkscape:cx="291.49122"
     inkscape:cy="157.09139"
     inkscape:document-units="mm"
     inkscape:current-layer="text2097"
     inkscape:document-rotation="0"
     showgrid="false"
     units="px"
     inkscape:window-width="1920"
     inkscape:window-height="1020"
     inkscape:window-x="0"
     inkscape:window-y="32"
     inkscape:window-maximized="1" />
  <metadata
     id="metadata1529">
    <rdf:RDF>
      <cc:Work
         rdf:about="">
        <dc:format>image/svg+xml</dc:format>
        <dc:type
           rdf:resource="http://purl.org/dc/dcmitype/StillImage" />
        <dc:title></dc:title>
      </cc:Work>
    </rdf:RDF>
  </metadata>
  <g
     inkscape:label="Layer 1"
     inkscape:groupmode="layer"
     id="layer1">
    <g
       aria-label="inkyOS"
       id="text2097"
       style="font-style:normal;font-weight:normal;font-size:39.4876px;line-height:1.25;font-family:sans-serif;letter-spacing:0px;word-spacing:0px;fill:#000000;fill-opacity:1;stroke:none;stroke-width:0.987192">
      <g
         id="g2148"
         transform="translate(-0.13539322,-1.2178206)">
        <path
           d="m 4.9393796,37.200499 q -0.394876,0 -0.671289,-0.276416 -0.276413,-0.276413 -0.276413,-0.671287 V 17.614649 q 0,-0.394876 0.276413,-0.671289 0.276413,-0.276414 0.671289,-0.276414 h 3.277471 q 0.434363,0 0.671289,0.276414 0.276413,0.276413 0.276413,0.671289 v 18.638147 q 0,0.394874 -0.276413,0.671287 -0.236926,0.276416 -0.671289,0.276416 z m -0.15795,-23.929486 q -0.434364,0 -0.710777,-0.236926 -0.236926,-0.276413 -0.236926,-0.710776 V 9.4802042 q 0,-0.3948761 0.236926,-0.6712901 0.276413,-0.276413 0.710777,-0.276413 h 3.593371 q 0.434364,0 0.710777,0.276413 0.276413,0.276414 0.276413,0.6712901 v 2.8431068 q 0,0.434363 -0.276413,0.710776 -0.276413,0.236926 -0.710777,0.236926 z"
           style="font-style:normal;font-variant:normal;font-weight:500;font-stretch:normal;font-size:39.4876px;line-height:1.25;font-family:Rubik;-inkscape-font-specification:'Rubik Medium';letter-spacing:0px;word-spacing:0px;fill:#ffffff;fill-opacity:1;stroke:#000000;stroke-width:0.529167;stroke-miterlimit:4;stroke-dasharray:none;stroke-opacity:1"
           id="path2099" />
        <path
           d="m 15.364104,37.200499 q -0.394876,0 -0.671289,-0.276416 -0.276413,-0.276413 -0.276413,-0.671287 V 17.614649 q 0,-0.394876 0.276413,-0.671289 0.276413,-0.276414 0.671289,-0.276414 h 3.237983 q 0.394876,0 0.671289,0.276414 0.276414,0.276413 0.276414,0.671289 v 1.61899 q 1.026677,-1.263602 2.606181,-2.092841 1.618992,-0.868728 3.988248,-0.868728 2.408743,0 4.185685,1.105653 1.776942,1.066165 2.724645,3.040544 0.987189,1.97438 0.987189,4.738512 v 11.096017 q 0,0.394874 -0.276413,0.671287 -0.276412,0.276416 -0.67129,0.276416 h -3.474908 q -0.394876,0 -0.671289,-0.276416 -0.276413,-0.276413 -0.276413,-0.671287 v -10.85909 q 0,-2.290282 -1.14514,-3.593373 -1.105653,-1.30309 -3.237984,-1.30309 -2.053355,0 -3.27747,1.30309 -1.224116,1.303091 -1.224116,3.593373 v 10.85909 q 0,0.394874 -0.276413,0.671287 -0.276413,0.276416 -0.671289,0.276416 z"
           style="font-style:normal;font-variant:normal;font-weight:500;font-stretch:normal;font-size:39.4876px;line-height:1.25;font-family:Rubik;-inkscape-font-specification:'Rubik Medium';letter-spacing:0px;word-spacing:0px;fill:#ffffff;fill-opacity:1;stroke:#000000;stroke-width:0.529167;stroke-miterlimit:4;stroke-dasharray:none;stroke-opacity:1"
           id="path2101" />
        <path
           d="m 40.043798,37.200499 q -0.394875,0 -0.67129,-0.276416 -0.276413,-0.276413 -0.276413,-0.671287 V 10.112005 q 0,-0.3948758 0.276413,-0.6712888 0.276415,-0.2764131 0.67129,-0.2764131 h 3.198495 q 0.434364,0 0.67129,0.2764131 0.276413,0.276413 0.276413,0.6712888 v 13.504758 l 6.633917,-6.278527 q 0.355388,-0.315901 0.631801,-0.473852 0.276413,-0.197438 0.829241,-0.197438 H 55.9573 q 0.394875,0 0.631801,0.236926 0.236927,0.236926 0.236927,0.631802 0,0.15795 -0.07897,0.355388 -0.07897,0.197438 -0.315902,0.355388 l -8.134446,7.621107 9.121635,9.792924 q 0.394878,0.394875 0.394878,0.671287 0,0.394878 -0.276413,0.631804 -0.236927,0.236927 -0.592315,0.236927 h -3.751321 q -0.592315,0 -0.868727,-0.157951 -0.236927,-0.19744 -0.592315,-0.51334 l -7.542131,-7.937007 v 7.660595 q 0,0.394874 -0.276412,0.671287 -0.236927,0.276416 -0.671291,0.276416 z"
           style="font-style:normal;font-variant:normal;font-weight:500;font-stretch:normal;font-size:39.4876px;line-height:1.25;font-family:Rubik;-inkscape-font-specification:'Rubik Medium';letter-spacing:0px;word-spacing:0px;fill:#ffffff;fill-opacity:1;stroke:#000000;stroke-width:0.529167;stroke-miterlimit:4;stroke-dasharray:none;stroke-opacity:1"
           id="path2103" />
        <path
           d="m 64.486594,44.70314 q -0.3159,0 -0.552826,-0.236924 -0.236926,-0.236926 -0.236926,-0.552828 0,-0.157948 0,-0.315899 0.03949,-0.118462 0.157951,-0.315902 L 66.934826,35.976383 59.353206,18.0885 q -0.157951,-0.394876 -0.157951,-0.552826 0.03949,-0.355389 0.276413,-0.592314 0.236926,-0.276414 0.592315,-0.276414 h 3.198495 q 0.47385,0 0.710776,0.236926 0.236927,0.236926 0.355389,0.513339 l 5.251854,12.912445 5.4098,-12.912445 q 0.11846,-0.315901 0.35539,-0.513339 0.23692,-0.236926 0.71077,-0.236926 h 3.15901 q 0.3159,0 0.55283,0.236926 0.27641,0.236926 0.27641,0.552826 0,0.236926 -0.15795,0.631802 l -11.17499,25.864377 q -0.15795,0.315902 -0.39487,0.513339 -0.23693,0.236924 -0.71078,0.236924 z"
           style="font-style:normal;font-variant:normal;font-weight:500;font-stretch:normal;font-size:39.4876px;line-height:1.25;font-family:Rubik;-inkscape-font-specification:'Rubik Medium';letter-spacing:0px;word-spacing:0px;fill:#ffffff;fill-opacity:1;stroke:#000000;stroke-width:0.529167;stroke-miterlimit:4;stroke-dasharray:none;stroke-opacity:1"
           id="path2105" />
        <path
           d="m 94.536627,37.595373 q -3.51439,0 -6.0416,-1.14514 -2.52721,-1.18463 -3.94876,-3.593371 -1.42155,-2.448231 -1.54002,-6.081091 -0.0395,-1.697967 -0.0395,-3.356445 0,-1.658479 0.0395,-3.395934 0.11847,-3.593371 1.57951,-6.002115 1.46104,-2.408743 3.98825,-3.632859 2.56669,-1.2241149 5.96262,-1.2241149 3.39593,0 5.962633,1.2241149 2.5667,1.224116 4.02774,3.632859 1.46104,2.408744 1.57951,6.002115 0.079,1.737455 0.079,3.395934 0,1.658478 -0.079,3.356445 -0.11847,3.63286 -1.54002,6.081091 -1.42156,2.408741 -3.98826,3.593371 -2.527203,1.14514 -6.041603,1.14514 z m 0,-4.541073 q 2.5667,0 4.18569,-1.50053 1.618993,-1.540016 1.737453,-4.975436 0.079,-1.737455 0.079,-3.198497 0,-1.500529 -0.079,-3.198495 -0.079,-2.29028 -0.868733,-3.711834 -0.75026,-1.461041 -2.05335,-2.092842 -1.30309,-0.671289 -3.00106,-0.671289 -1.65847,0 -2.96157,0.671289 -1.30309,0.631801 -2.09284,2.092842 -0.75026,1.421554 -0.82924,3.711834 -0.0395,1.697966 -0.0395,3.198495 0,1.461042 0.0395,3.198497 0.11846,3.43542 1.73745,4.975436 1.619,1.50053 4.1462,1.50053 z"
           style="font-style:normal;font-variant:normal;font-weight:500;font-stretch:normal;font-size:39.4876px;line-height:1.25;font-family:Rubik;-inkscape-font-specification:'Rubik Medium';letter-spacing:0px;word-spacing:0px;fill:#000000;fill-opacity:1;stroke:none;stroke-width:0.987192"
           id="path2107" />
        <path
           d="m 120.95383,37.595373 q -3.67234,0 -6.16006,-1.066165 -2.44823,-1.105654 -3.75133,-2.843107 -1.2636,-1.776942 -1.34257,-3.711835 0,-0.355387 0.23692,-0.592314 0.23693,-0.236924 0.59232,-0.236924 h 3.51439 q 0.51334,0 0.75027,0.236924 0.27641,0.197439 0.47385,0.51334 0.23692,0.750264 0.90821,1.500529 0.67129,0.710776 1.81643,1.184628 1.18463,0.473851 2.96157,0.473851 2.84311,0 4.22517,-0.947703 1.42156,-0.947702 1.42156,-2.566693 0,-1.145142 -0.75027,-1.81643 -0.75026,-0.710777 -2.32976,-1.263603 -1.54002,-0.592314 -4.10671,-1.224116 -2.96157,-0.710776 -4.97544,-1.697967 -1.97438,-1.026678 -3.00106,-2.566694 -0.98719,-1.540016 -0.98719,-3.909272 0,-2.29028 1.22412,-4.067222 1.2636,-1.776942 3.55388,-2.80362 2.32977,-1.0266769 5.52826,-1.0266769 2.5667,0 4.54108,0.7107771 1.97438,0.6712888 3.27747,1.8164288 1.30309,1.105653 1.97438,2.408744 0.71078,1.263603 0.75026,2.487718 0,0.315901 -0.23692,0.592314 -0.19744,0.236926 -0.59232,0.236926 H 126.798 q -0.3159,0 -0.63181,-0.157951 -0.3159,-0.15795 -0.51333,-0.592314 -0.23693,-1.224115 -1.54002,-2.092842 -1.30309,-0.868727 -3.35645,-0.868727 -2.13233,0 -3.43542,0.789752 -1.30309,0.789752 -1.30309,2.448231 0,1.105652 0.6318,1.855916 0.67129,0.710778 2.09285,1.263604 1.46104,0.552826 3.83029,1.184627 3.35645,0.750264 5.48878,1.737454 2.13233,0.98719 3.11952,2.527208 0.98719,1.500528 0.98719,3.830297 0,2.606181 -1.42155,4.462098 -1.38207,1.81643 -3.90928,2.80362 -2.5272,0.987189 -5.88365,0.987189 z"
           style="font-style:normal;font-variant:normal;font-weight:500;font-stretch:normal;font-size:39.4876px;line-height:1.25;font-family:Rubik;-inkscape-font-specification:'Rubik Medium';letter-spacing:0px;word-spacing:0px;fill:#000000;fill-opacity:1;stroke:none;stroke-width:0.987192"
           id="path2109" />
      </g>
    </g>
  </g>
</svg>
